<svg xmlns="http://www.w3.org/2000/svg" xmlns:xlink="http://www.w3.org/1999/xlink" viewBox="0 0 3264.75 850.31"><defs><linearGradient id="a" x1="667.95" y1="420.13" x2="607.67" y2="278.1" gradientUnits="userSpaceOnUse"><stop offset="0" stop-color="#fff"/><stop offset="1" stop-color="#fff" stop-opacity="0"/></linearGradient><linearGradient id="b" x1="152.53" y1="441.69" x2="272.78" y2="256.53" xlink:href="#a"/><linearGradient id="c" x1="425.16" y1="355.53" x2="425.16" y2="0" xlink:href="#a"/></defs><title>logo-text</title><polygon points="425.16 520.46 0 342.69 425.16 164.93 850.31 342.69 425.16 520.46" style="fill:#8d79b8"/><g style="opacity:0.5"><polygon points="425.23 355.53 0.08 177.77 425.23 0 850.39 177.77 425.23 355.53" style="fill:#8d79b8"/></g><g style="opacity:0.5"><polygon points="425.23 355.53 850.39 177.77 850.39 672.55 425.23 850.31 425.23 355.53" style="fill:#8570b3"/></g><g style="opacity:0.5"><polygon points="425.23 355.53 0.08 177.77 0.08 672.55 425.24 850.31 425.23 355.53" style="fill:#7c6ba9"/></g><polygon points="425.18 685.39 0.05 507.62 0.05 342.69 425.18 520.46 425.18 685.39" style="fill:#7c6baa"/><polygon points="425.24 685.39 850.36 507.62 850.36 342.69 425.24 520.46 425.24 685.39" style="fill:#8570b3"/><polygon points="425.16 850.31 0.03 672.55 0.03 507.62 425.16 685.39 425.16 850.31" style="fill:#5d5380"/><polygon points="425.21 850.31 850.34 672.55 850.34 507.62 425.21 685.39 425.21 850.31" style="fill:#685b8f"/><polygon points="425.25 520.46 850.38 342.69 850.38 177.77 425.25 355.53 425.25 520.46" style="opacity:0.30000000000000004;fill:url(#a)"/><polygon points="425.22 520.46 0.09 342.69 0.09 177.77 425.22 355.53 425.22 520.46" style="opacity:0.30000000000000004;fill:url(#b)"/><g style="opacity:0.30000000000000004"><polygon points="425.16 355.53 0 177.77 425.16 0 850.31 177.77 425.16 355.53" style="fill:url(#c)"/></g><path d="M1090.54,659.21V197.71h300.3v29.9H1123.69v183.3h226.85v28.6H1123.69v219.7Z" transform="translate(0 -0.05)" style="fill:#212121"/><path d="M1469.48,184.71h33.15V592.26q0,18.86,10.72,29.9t29.58,11a110.39,110.39,0,0,0,17.22-1.62,91.75,91.75,0,0,0,18.53-4.87l6.5,26a135.66,135.66,0,0,1-27.3,7.47,161.27,161.27,0,0,1-28,2.93q-27.3,0-43.87-16.58T1469.48,602Z" transform="translate(0 -0.05)" style="fill:#212121"/><path d="M1739.88,665.71q-107.9,0-107.9-149.5v-195h32.5V511.66q0,124.8,85.15,124.8a118.62,118.62,0,0,0,41.6-7.47,145.75,145.75,0,0,0,68.58-53,163.55,163.55,0,0,0,21.13-41.6V321.21h32.5v292.5q0,16.26,13.65,16.25v29.25a30.76,30.76,0,0,1-5.85.65h-3.9a35.68,35.68,0,0,1-23.08-8.12q-10.08-8.12-10.07-21.78v-50.7q-22.11,40.95-60.78,63.7A161.84,161.84,0,0,1,1739.88,665.71Z" transform="translate(0 -0.05)" style="fill:#212121"/><path d="M2158.47,665.71q-35.76,0-66-14a163.27,163.27,0,0,1-52.33-38,175.19,175.19,0,0,1-34.45-55.9,183.45,183.45,0,0,1-12.35-66.95,182.38,182.38,0,0,1,47.45-123.5,163.57,163.57,0,0,1,52.33-38,153.79,153.79,0,0,1,65.33-14q35.1,0,65,14a168.62,168.62,0,0,1,52.32,38,177.25,177.25,0,0,1,35.1,55.9,183.25,183.25,0,0,1-34.78,190.45,163.37,163.37,0,0,1-52.33,38A153.81,153.81,0,0,1,2158.47,665.71Zm-132.6-173.55a151.54,151.54,0,0,0,10.4,56.22,146.73,146.73,0,0,0,28.27,45.83,133.93,133.93,0,0,0,41.93,30.88,121.59,121.59,0,0,0,102.7,0,133.18,133.18,0,0,0,42.25-31.53A156.68,156.68,0,0,0,2280,434a148.09,148.09,0,0,0-28.6-46.15,141.54,141.54,0,0,0-41.92-31.52,113.82,113.82,0,0,0-51-11.7,115.83,115.83,0,0,0-51.35,11.7,133.79,133.79,0,0,0-41.92,31.85,158.51,158.51,0,0,0-28.6,47.13A152.55,152.55,0,0,0,2025.87,492.16Z" transform="translate(0 -0.05)" style="fill:#212121"/><path d="M2561.47,350.46q-45.5,1.31-79.62,27T2434.07,448V659.21h-32.5v-338h31.2v83.2q17.55-35.74,46.47-58.18t62.08-25.67q6.49-.64,11.7-.65h8.45Z" transform="translate(0 -0.05)" style="fill:#212121"/><path d="M2623.21,244.51v-59.8h32.5v59.8Zm0,414.7v-338h32.5v338Z" transform="translate(0 -0.05)" style="fill:#212121"/><path d="M2908.55,643q-2.6,1.31-8.78,4.88a90.07,90.07,0,0,1-15.6,6.83,191.84,191.84,0,0,1-21.12,5.85,117.21,117.21,0,0,1-25.35,2.6,82.73,82.73,0,0,1-25.68-3.9,60.88,60.88,0,0,1-21.12-11.7,55.64,55.64,0,0,1-14.3-18.85q-5.21-11-5.2-26V347.86H2724V321.21h47.45V205.51h32.5v115.7h78.65v26.65H2803.9v247q0,18.86,13,28.27a48.58,48.58,0,0,0,29.25,9.42q20.14,0,34.78-6.82T2898.8,617Z" transform="translate(0 -0.05)" style="fill:#212121"/><path d="M3101,665.71q-35.75,0-66.3-14a163.68,163.68,0,0,1-53-38.35,182.25,182.25,0,0,1-47.78-124.47,179.11,179.11,0,0,1,47.45-122.53A161.59,161.59,0,0,1,3033.68,329q30.22-13.65,65.33-13.65,35.74,0,66.3,14A165,165,0,0,1,3218,367a172.74,172.74,0,0,1,34.45,55.25,181.17,181.17,0,0,1,12.35,66.63V497c0,3.25-.22,5.31-.65,6.17H2967.7a150.61,150.61,0,0,0,13.65,54.28,154,154,0,0,0,29.58,43.22,132.88,132.88,0,0,0,41.27,28.6,121.75,121.75,0,0,0,50.05,10.4,123.72,123.72,0,0,0,34.45-4.87,140.58,140.58,0,0,0,31.53-13.33,113.91,113.91,0,0,0,26-20.47,96.11,96.11,0,0,0,17.88-26.33l28.6,7.8A107.8,107.8,0,0,1,3219.58,616a143,143,0,0,1-32.5,26.32,165.85,165.85,0,0,1-40.62,17.23A168.43,168.43,0,0,1,3101,665.71Zm132.6-188.5q-1.95-29.89-13.33-54.6A146,146,0,0,0,3191,380a131.45,131.45,0,0,0-41.28-28,129.35,129.35,0,0,0-100.1,0,131.35,131.35,0,0,0-41.28,28,135.3,135.3,0,0,0-28.6,42.9,164.53,164.53,0,0,0-12.67,54.27Z" transform="translate(0 -0.05)" style="fill:#212121"/></svg>