<svg xmlns="http://www.w3.org/2000/svg" xmlns:xlink="http://www.w3.org/1999/xlink" viewBox="0 0 191.976 50.002"><defs><style>.a{fill:#f0efef;}.b{fill:#f7f8f8;}.c{opacity:0.5;}.d{fill:#fff;}.e{fill:#f8fafb;}.f{fill:#f1efef;}.g{fill:#e9e8e8;}.h{fill:#f3f2f3;}.i{fill:#cccccb;}.j{fill:#d8d9d8;}.k,.l,.m{opacity:0.3;}.k{fill:url(#a);}.l{fill:url(#b);}.n{fill:url(#c);}</style><linearGradient id="a" x1="0.571" y1="0.74" x2="0.429" y2="1.154" gradientUnits="objectBoundingBox"><stop offset="0" stop-color="#fff"/><stop offset="1" stop-color="#fff" stop-opacity="0"/></linearGradient><linearGradient id="b" x1="0.359" y1="0.677" x2="0.641" y2="1.217" xlink:href="#a"/><linearGradient id="c" x1="0.5" y1="1.395" x2="0.5" y2="2.395" xlink:href="#a"/></defs><path class="a" d="M1090.54,224.847V197.71H1108.2v1.758h-15.709v10.778h13.339v1.682h-13.339v12.919Z" transform="translate(-1026.416 -186.101)"/><path class="a" d="M1469.48,184.71h1.949v23.965a2.417,2.417,0,0,0,.63,1.758,2.3,2.3,0,0,0,1.739.647,6.49,6.49,0,0,0,1.012-.1,5.393,5.393,0,0,0,1.09-.286l.382,1.529a7.978,7.978,0,0,1-1.605.439,9.483,9.483,0,0,1-1.646.172,3.486,3.486,0,0,1-2.58-.975,3.529,3.529,0,0,1-.972-2.616Z" transform="translate(-1383.073 -173.866)"/><path class="a" d="M1638.325,341.467q-6.345,0-6.345-8.791V321.21h1.911v11.2q0,7.339,5.007,7.339a6.976,6.976,0,0,0,2.446-.439,8.571,8.571,0,0,0,4.033-3.117,9.615,9.615,0,0,0,1.243-2.446V321.21h1.911v17.2q0,.956.8.956v1.72a1.813,1.813,0,0,1-.344.038h-.229a2.1,2.1,0,0,1-1.357-.478,1.558,1.558,0,0,1-.592-1.281v-2.981a9.573,9.573,0,0,1-8.486,5.083Z" transform="translate(-1536.018 -302.339)"/><path class="a" d="M2003.048,335.957a9.123,9.123,0,0,1-3.881-.823,9.6,9.6,0,0,1-3.077-2.234,10.3,10.3,0,0,1-2.026-3.287,10.906,10.906,0,0,1,2.064-11.2,9.62,9.62,0,0,1,3.077-2.234,9.044,9.044,0,0,1,3.842-.823,8.9,8.9,0,0,1,3.822.823,9.915,9.915,0,0,1,3.077,2.234,10.423,10.423,0,0,1,2.064,3.287,10.775,10.775,0,0,1-2.045,11.2,9.607,9.607,0,0,1-3.077,2.234A9.044,9.044,0,0,1,2003.048,335.957Zm-7.8-10.205a8.913,8.913,0,0,0,.611,3.306,8.629,8.629,0,0,0,1.662,2.695,7.876,7.876,0,0,0,2.466,1.816,7.15,7.15,0,0,0,6.039,0,7.833,7.833,0,0,0,2.485-1.854,9.213,9.213,0,0,0,1.68-9.382,8.712,8.712,0,0,0-1.682-2.714,8.328,8.328,0,0,0-2.465-1.853,6.693,6.693,0,0,0-3-.688,6.81,6.81,0,0,0-3.019.688,7.865,7.865,0,0,0-2.465,1.873,9.318,9.318,0,0,0-1.682,2.771A8.967,8.967,0,0,0,1995.251,325.752Z" transform="translate(-1876.128 -296.829)"/><path class="a" d="M2410.973,321.706a7.81,7.81,0,0,0-7.491,5.736v12.42h-1.911V319.986h1.834v4.892a9.607,9.607,0,0,1,2.733-3.421,6.987,6.987,0,0,1,3.65-1.509q.382-.038.688-.038h.5Z" transform="translate(-2260.355 -301.116)"/><path class="a" d="M2623.21,188.226V184.71h1.911v3.516Zm0,24.385V192.736h1.911v19.875Z" transform="translate(-2468.962 -173.866)"/><path class="a" d="M2734.852,231.235q-.153.077-.516.287a5.292,5.292,0,0,1-.917.4,11.262,11.262,0,0,1-1.242.344,6.89,6.89,0,0,1-1.49.153,4.868,4.868,0,0,1-1.51-.229,3.579,3.579,0,0,1-1.242-.688,3.268,3.268,0,0,1-.841-1.108,3.532,3.532,0,0,1-.306-1.529V213.881H2724v-1.567h2.79v-6.8h1.911v6.8h4.625v1.567H2728.7V228.4a1.918,1.918,0,0,0,.764,1.662,2.857,2.857,0,0,0,1.72.554,4.807,4.807,0,0,0,2.045-.4q.861-.4,1.051-.513Z" transform="translate(-2563.825 -193.443)"/><path class="a" d="M2943.739,335.952a9.246,9.246,0,0,1-3.9-.823,9.625,9.625,0,0,1-3.116-2.255,10.719,10.719,0,0,1-2.81-7.319,10.533,10.533,0,0,1,2.791-7.205,9.5,9.5,0,0,1,3.076-2.2,9.619,9.619,0,0,1,7.74.021,9.7,9.7,0,0,1,3.1,2.214,10.157,10.157,0,0,1,2.026,3.249,10.652,10.652,0,0,1,.726,3.918v.477a1.029,1.029,0,0,1-.038.363H2935.9a8.855,8.855,0,0,0,.8,3.192,9.054,9.054,0,0,0,1.739,2.541,7.816,7.816,0,0,0,2.427,1.682,7.159,7.159,0,0,0,2.943.612,7.277,7.277,0,0,0,2.026-.286,8.268,8.268,0,0,0,1.854-.784,6.7,6.7,0,0,0,1.529-1.2,5.651,5.651,0,0,0,1.051-1.548l1.682.459a6.339,6.339,0,0,1-1.242,1.972,8.416,8.416,0,0,1-1.911,1.548,9.756,9.756,0,0,1-2.389,1.013A9.9,9.9,0,0,1,2943.739,335.952Zm7.8-11.084a9,9,0,0,0-.784-3.211,8.584,8.584,0,0,0-1.721-2.506,7.729,7.729,0,0,0-2.427-1.646,7.607,7.607,0,0,0-5.886,0,7.725,7.725,0,0,0-2.427,1.646,7.963,7.963,0,0,0-1.682,2.523,9.684,9.684,0,0,0-.745,3.191Z" transform="translate(-2761.395 -296.824)"/><path class="b" d="M25,185.856,0,175.4,25,164.95,50,175.4Z" transform="translate(0 -155.251)"/><g class="c" transform="translate(0.005)"><path class="d" d="M25.08,20.906.08,10.453,25.08,0l25,10.453Z" transform="translate(-0.08)"/></g><g class="c" transform="translate(25.005 10.453)"><path class="e" d="M425.231,188.223l25-10.453v29.094l-25,10.453Z" transform="translate(-425.23 -177.77)"/></g><g class="c" transform="translate(0.005 10.453)"><path class="f" d="M25.08,188.223.08,177.77v29.094l25,10.453Z" transform="translate(-0.08 -177.77)"/></g><path class="g" d="M25.049,362.871l-25-10.453v-9.7l25,10.453Z" transform="translate(-0.047 -322.567)"/><path class="h" d="M425.24,362.871l25-10.453v-9.7l-25,10.453Z" transform="translate(-400.235 -322.567)"/><path class="i" d="M25.029,527.792l-25-10.453v-9.7l25,10.453Z" transform="translate(-0.028 -477.79)"/><path class="j" d="M425.21,527.792l25-10.453v-9.7l-25,10.453Z" transform="translate(-400.207 -477.79)"/><path class="k" d="M425.3,197.921l25-10.453v-9.7l-25,10.453Z" transform="translate(-400.291 -167.317)"/><path class="l" d="M25.139,197.921l-25-10.453v-9.7l25,10.453Z" transform="translate(-0.132 -167.317)"/><g class="m" transform="translate(0.003)"><path class="n" d="M25.05,20.906.05,10.453,25.05,0l25,10.453Z" transform="translate(-0.05)"/></g></svg>