<svg xmlns="http://www.w3.org/2000/svg" xmlns:xlink="http://www.w3.org/1999/xlink" viewBox="0 0 850.39 850.31"><defs><linearGradient id="a" x1="667.95" y1="420.13" x2="607.67" y2="278.1" gradientUnits="userSpaceOnUse"><stop offset="0" stop-color="#fff"/><stop offset="1" stop-color="#fff" stop-opacity="0"/></linearGradient><linearGradient id="b" x1="152.53" y1="441.69" x2="272.78" y2="256.53" xlink:href="#a"/><linearGradient id="c" x1="425.16" y1="355.53" x2="425.16" y2="0" xlink:href="#a"/></defs><title>logo</title><polygon points="425.16 520.46 0 342.69 425.16 164.93 850.31 342.69 425.16 520.46" style="fill:#8d79b8"/><g style="opacity:0.5"><polygon points="425.23 355.53 0.08 177.77 425.23 0 850.39 177.77 425.23 355.53" style="fill:#8d79b8"/></g><g style="opacity:0.5"><polygon points="425.23 355.53 850.39 177.77 850.39 672.55 425.23 850.31 425.23 355.53" style="fill:#8570b3"/></g><g style="opacity:0.5"><polygon points="425.23 355.53 0.08 177.77 0.08 672.55 425.24 850.31 425.23 355.53" style="fill:#7c6ba9"/></g><polygon points="425.18 685.39 0.05 507.62 0.05 342.69 425.18 520.46 425.18 685.39" style="fill:#7c6baa"/><polygon points="425.24 685.39 850.36 507.62 850.36 342.69 425.24 520.46 425.24 685.39" style="fill:#8570b3"/><polygon points="425.16 850.31 0.03 672.55 0.03 507.62 425.16 685.39 425.16 850.31" style="fill:#5d5380"/><polygon points="425.21 850.31 850.34 672.55 850.34 507.62 425.21 685.39 425.21 850.31" style="fill:#685b8f"/><polygon points="425.25 520.46 850.38 342.69 850.38 177.77 425.25 355.53 425.25 520.46" style="opacity:0.3;fill:url(#a)"/><polygon points="425.22 520.46 0.09 342.69 0.09 177.77 425.22 355.53 425.22 520.46" style="opacity:0.3;fill:url(#b)"/><g style="opacity:0.3"><polygon points="425.16 355.53 0 177.77 425.16 0 850.31 177.77 425.16 355.53" style="fill:url(#c)"/></g></svg>